# xmcd
#
# Track frame offsets: 
#        150
#        15597
#        28796
#        42051
#        55223
#        71067
#        85381
#        99890
#        116635
#        133510
#        149825
#        167326
#        181282
#
# Disc length: 2646 seconds
#
# Revision: 0
# Processed by: cddbd v1.5.2PL0 Copyright (c) Steve Scherf et al.
# Submitted via: ExactAudioCopy v1.0b1
#
DISCID=ad0a540d
DTITLE=Tristan Prettyman - twentythree
DYEAR=2005
DGENRE=
TTITLE0=Love Love Love
TTITLE1=Always Feel This Way
TTITLE2=The Story
TTITLE3=Electric
TTITLE4=Shy That Way (Feat. Jason Mraz)
TTITLE5=Please
TTITLE6=Breathe
TTITLE7=Song For The Rich
TTITLE8=Smoke
TTITLE9=Melting
TTITLE10=Simple As It Should Be
TTITLE11=November
TTITLE12=Mess
EXTD=
EXTT0=
EXTT1=
EXTT2=
EXTT3=
EXTT4=
EXTT5=
EXTT6=
EXTT7=
EXTT8=
EXTT9=
EXTT10=
EXTT11=
EXTT12=
PLAYORDER=
